<svg xmlns="http://www.w3.org/2000/svg" xml:space="preserve" width="200" height="200" style="shape-rendering:geometricPrecision;text-rendering:geometricPrecision;image-rendering:optimizeQuality;fill-rule:evenodd;clip-rule:evenodd" viewBox="0 0 20000 20000"><path fill="#ffb833" d="M7175 4249h5650c1657 0 3013 1357 3013 3013v5474c0 1657-1356 3013-3013 3013H7175c-1657 0-3013-1356-3013-3013V7262c0-1657 1356-3013 3013-3013m5780 1992c375 0 679 304 679 679s-304 679-679 679-679-304-679-679 304-679 679-679m-2955 698c1690 0 3060 1370 3060 3060s-1370 3060-3060 3060-3060-1370-3060-3060 1370-3060 3060-3060m0 997c1140 0 2064 924 2064 2064s-924 2064-2064 2064-2064-924-2064-2064 924-2064 2064-2064M7661 5254h4678c1372 0 2495 1123 2495 2495v4402c0 1372-1123 2595-2495 2595H7661c-1372 0-2495-1223-2495-2595V7749c0-1372 1123-2495 2495-2495" class="fil0"/></svg>