<svg xmlns="http://www.w3.org/2000/svg" xml:space="preserve" width="200" height="200" style="shape-rendering:geometricPrecision;text-rendering:geometricPrecision;image-rendering:optimizeQuality;fill-rule:evenodd;clip-rule:evenodd" viewBox="0 0 20000 20000"><path fill="#fff" stroke="#fff" stroke-width="295.278" d="M14841 9065c-51-2055-1631-3741-3676-3922l50-568c2334 207 4138 2131 4195 4477l-570 14zm-2448 321c-133-889-812-1608-1690-1790l116-559c1111 230 1970 1140 2139 2264l-564 84zM4351 4861c-250 1733 488 4564 3311 7485 3013 2911 5575 3347 6834 3347h0c228 0 444-14 645-43 483-988 589-2374 540-3036-897-632-2285-1081-3313-1052-297 302-777 956-935 1259l-108 206-223-64c-632-181-1406-736-2367-1697S7219 9531 7038 8899l-64-223 206-108c303-159 958-638 1260-935 25-1028-414-2408-1052-3313-709-54-2069 67-3036 540zm10145 11403q0 0 0 0c-1345 0-4074-456-7237-3514-3056-3162-3783-6271-3447-8128l24-135 120-65c1138-617 2808-754 3620-656l121 14 73 97c784 1042 1303 2679 1235 3892l-6 100-67 74c-259 288-857 745-1272 1005 213 503 709 1146 1478 1915s1412 1265 1915 1478c260-415 717-1013 1005-1272l75-67 100-6c1215-66 2859 458 3891 1235l97 73 15 121c96 794-46 2493-656 3620l-65 120-135 24c-272 49-568 74-883 74zm-797-7022c-160-1497-1311-2716-2799-2965l94-563c1739 291 3085 1716 3272 3467z" class="fil0" data-changed="true" style="stroke-linecap:round;stroke-linejoin:round"/></svg>