<svg xmlns="http://www.w3.org/2000/svg" xml:space="preserve" width="200" height="200" style="shape-rendering:geometricPrecision;text-rendering:geometricPrecision;image-rendering:optimizeQuality;fill-rule:evenodd;clip-rule:evenodd" viewBox="0 0 20000 20000"><path fill="#ffb833" d="M9502 8446c-947-631-1284-954-2533-1478-594-281-2381-1074-3073-1089 0 1323 776 1210 1246 1867-492 0-506 37-872 117 96 1082 1337 1272 1620 1633-790 16-257 79-872 233 194 779 854 1050 1869 1050-251 234-476 365-498 933 20 148 482 225 927 309 112 21 172 73 90 179-801 1034-2040 1145-3384 1145-759 0-1140-218-1744-350 42 478 233 556 977 1068 2828 1946 7168 1689 10013-110 1214-768 2706-2152 2839-3642 556 0 1620-86 1620-700l-1243-138 703-250c336-136 437-210 415-545-2317 0-934-45-2239-1753-1035-1355-1913-855-2744-1397 411-154 1041-219 1184-474 42-75 58-147 62-226-492 0-921 242-872 112 87-332 113-391 0-346l-1331 504 5-100c-712 357-2027 2901-2162 3447z" class="fil0"/></svg>